<?xml version="1.0" encoding="UTF-8"?>
<svg id="Layer_2" data-name="Layer 2" xmlns="http://www.w3.org/2000/svg" viewBox="0 0 24.16 15.39">
  <g id="Layer_1-2" data-name="Layer 1">
    <g>
      <path d="M3.7,13.68C2.46,10.09,1.23,6.51,0,2.94c.05-.03.1-.06.14-.09,1.14.8,2.29,1.58,3.41,2.42.17.13.26.51.22.74-.07.43-.22.86-.43,1.24-.37.66-.04.94.51,1.17,1.23.53,2.59.11,3.64-1.32-.46-.38-.95-.81-1.47-1.2-.48-.35-.5-.72-.27-1.25.63-1.49,1.19-3,1.8-4.57.16.13.31.22.42.35.93,1.08,1.84,2.18,2.79,3.24.32.36.32.62.08,1-.35.55-.62,1.17-.99,1.71-.29.42-.16.67.16.97,1.19,1.14,2.88,1.12,4.06-.02.35-.34.39-.62.12-.99-.06-.09-.12-.19-.17-.28q-1.1-1.95.38-3.67c.66-.77,1.32-1.53,2.07-2.4.69,1.75,1.36,3.41,1.98,5.09.06.17-.12.5-.28.68-.46.51-.96.97-1.43,1.45.75,1.37,2.45,1.82,3.76,1.07.39-.23.45-.46.31-.87-.22-.63-.67-1.37-.5-1.9.16-.5.98-.8,1.51-1.18.71-.5,1.42-1,2.33-1.64-1.31,3.8-2.53,7.36-3.78,10.97-5.53-1.59-11.03-1.62-16.68.02Z"/>
      <path d="M20.16,14.27c-.16.43-.27.71-.41,1.08-5.15-1.34-10.31-1.35-15.5.04-.11-.37-.2-.68-.32-1.1,5.42-1.54,10.76-1.52,16.23-.02Z"/>
    </g>
  </g>
</svg>