<?xml version="1.0" encoding="UTF-8"?>
<svg id="Layer_2" data-name="Layer 2" xmlns="http://www.w3.org/2000/svg" viewBox="0 0 11.73 3.24">
  <defs>
    <style>
      .cls-1 {
        fill: #101b23;
      }
    </style>
  </defs>
  <g id="Layer_1-2" data-name="Layer 1">
    <g>
      <polygon class="cls-1" points="1.7 0 2.23 1.07 3.4 1.24 2.55 2.07 2.75 3.24 1.7 2.68 .65 3.24 .85 2.07 0 1.24 1.18 1.07 1.7 0"/>
      <polygon class="cls-1" points="5.86 0 6.39 1.07 7.57 1.24 6.71 2.07 6.92 3.24 5.86 2.68 4.81 3.24 5.01 2.07 4.16 1.24 5.34 1.07 5.86 0"/>
      <polygon class="cls-1" points="10.03 0 10.55 1.07 11.73 1.24 10.88 2.07 11.08 3.24 10.03 2.68 8.97 3.24 9.17 2.07 8.32 1.24 9.5 1.07 10.03 0"/>
    </g>
  </g>
</svg>